<?xml version="1.0" encoding="UTF-8"?>
<svg xmlns="http://www.w3.org/2000/svg" xmlns:xlink="http://www.w3.org/1999/xlink" width="106pt" height="40pt" viewBox="0 0 106 40" version="1.1">
<g id="surface1">
<path style=" stroke:none;fill-rule:nonzero;fill:rgb(100%,100%,100%);fill-opacity:1;" d="M 9.855469 0.00390625 L 10.246094 0.00390625 C 10.582031 0.695312 10.542969 1.484375 10.640625 2.214844 C 13.191406 2.0625 15.71875 2.808594 17.785156 4.328125 C 21.0625 7.292969 21.0625 13.335938 17.707031 16.257812 C 15.546875 18.175781 12.601562 18.964844 9.816406 18.867188 C 9.855469 21.238281 9.835938 23.6875 8.753906 25.78125 C 8.105469 27.042969 6.007812 27.105469 5.457031 25.742188 C 5.164062 24.695312 6.046875 23.882812 6.28125 22.9375 C 6.792969 21.492188 6.636719 19.933594 6.910156 18.453125 C 6.066406 18.136719 4.984375 17.5625 5.28125 16.398438 L 5.59375 16.082031 C 6.011719 16.019531 6.433594 16.019531 6.851562 16.082031 C 7.125 15.09375 6.96875 14.046875 7.046875 13.019531 C 7.320312 11.972656 7.007812 10.847656 7.28125 9.820312 C 7.261719 7.941406 7.558594 6.105469 7.558594 4.25 C 5.554688 4.78125 3.355469 5.867188 2.648438 8.0625 C 2.355469 8.851562 2.6875 9.78125 2.257812 10.53125 C 1.863281 11.417969 0.332031 11.578125 -0.0195312 10.570312 L -0.0195312 8.832031 C 0.765625 5.535156 3.964844 3.695312 6.910156 2.90625 C 7.300781 2.707031 8.046875 2.847656 8.144531 2.273438 C 8.402344 1.304688 8.929688 0.339844 9.816406 0.00390625 M 10.5 3.875 C 10.265625 5.535156 10.304688 7.230469 10.109375 8.890625 C 10.070312 9.679688 10.226562 10.472656 9.972656 11.261719 L 9.835938 17.324219 C 10.460938 17.621094 11.207031 17.5625 11.894531 17.40625 C 13.035156 17.304688 14.210938 17.011719 15.113281 16.21875 C 16.960938 14.835938 17.667969 12.269531 17.175781 10.015625 C 16.855469 7.109375 14.707031 4.746094 11.855469 4.171875 C 11.425781 3.933594 10.875 4.230469 10.480469 3.914062 Z M 57.160156 1.582031 C 57.75 0.871094 58.871094 0.277344 59.613281 1.03125 C 60.28125 2.472656 60.105469 4.191406 59.890625 5.710938 C 59.457031 8.574219 58.203125 11.203125 56.867188 13.710938 C 57.53125 14.792969 58.027344 15.972656 58.339844 17.207031 C 59.613281 16.8125 60.929688 16.417969 62.070312 15.726562 C 62.777344 14.046875 63.933594 12.367188 65.71875 11.894531 C 66.113281 11.695312 66.601562 11.933594 66.976562 11.695312 C 67.996094 11.003906 69.332031 10.769531 70.507812 11.203125 C 72.53125 12.269531 73.570312 14.699219 73.492188 16.96875 L 75.652344 16.101562 L 76.125 11.0625 C 76.457031 8.59375 76.515625 6.007812 77.558594 3.675781 C 78.046875 2.570312 78.96875 1.542969 80.207031 1.464844 C 80.402344 1.523438 80.597656 1.5625 80.835938 1.601562 C 81.660156 2.394531 81.757812 3.734375 81.582031 4.820312 C 81.421875 8.238281 80.304688 11.539062 78.988281 14.621094 C 78.402344 15.667969 78.480469 16.929688 78.460938 18.097656 C 78.539062 19.933594 78.261719 21.789062 78.617188 23.628906 L 78.890625 23.941406 C 80.519531 23.09375 81.246094 21.179688 82.1875 19.636719 C 82.582031 19.164062 82.445312 18.53125 82.582031 17.976562 C 82.601562 16.476562 82.71875 14.980469 82.933594 13.492188 C 83.074219 12.703125 83.859375 12.308594 84.367188 11.796875 C 84.839844 11.398438 85.390625 11.003906 86.035156 11.042969 C 86.703125 12.347656 86.15625 13.929688 85.839844 15.292969 C 85.25 16.714844 85.210938 18.292969 85.25 19.796875 C 85.015625 20.84375 85.152344 21.929688 85.113281 22.957031 C 85.074219 23.3125 85.210938 23.648438 85.390625 23.941406 C 86.015625 23.6875 86.527344 23.191406 86.898438 22.601562 C 87.785156 21.472656 88.410156 20.171875 89.058594 18.90625 C 89.195312 16.726562 90.078125 14.660156 91.550781 13.058594 C 92.378906 12.269531 93.417969 11.816406 94.496094 11.835938 C 95.578125 11.105469 96.988281 10.769531 98.226562 11.242188 C 100.25 12.308594 101.289062 14.738281 101.210938 17.011719 C 102.625 16.613281 103.839844 15.785156 105.097656 15.035156 C 105.175781 15.074219 105.292969 15.171875 105.351562 15.230469 L 105.351562 15.6875 C 104.175781 16.871094 102.742188 17.722656 101.230469 18.292969 C 100.976562 20.425781 100.347656 22.640625 98.777344 24.179688 C 97.265625 25.859375 94.8125 26.078125 92.75 25.800781 C 90.628906 25.207031 89.511719 22.917969 89.15625 20.820312 C 88.214844 22.679688 87.253906 24.773438 85.429688 25.839844 C 84.40625 25.976562 83.230469 25.957031 82.445312 25.167969 C 82.167969 23.984375 82.347656 22.796875 82.289062 21.652344 C 81.382812 23.230469 80.519531 24.96875 78.910156 25.839844 C 77.890625 25.9375 76.671875 25.996094 75.867188 25.246094 C 75.476562 24.554688 75.730469 23.726562 75.515625 22.996094 C 75.613281 21.097656 75.320312 19.125 75.671875 17.265625 C 74.945312 17.621094 74.296875 18.058594 73.511719 18.3125 C 73.386719 20.433594 72.574219 22.453125 71.195312 24.0625 C 70.019531 25.484375 68.054688 25.996094 66.289062 25.898438 C 64.855469 26.058594 63.382812 25.265625 62.65625 23.984375 C 61.363281 22.085938 61.144531 19.636719 61.480469 17.386719 C 60.578125 17.878906 59.636719 18.292969 58.691406 18.667969 C 59.667969 22.550781 59.960938 26.578125 59.554688 30.558594 C 59.164062 32.8125 59.027344 35.300781 57.671875 37.199219 C 57.21875 37.949219 56.414062 38.382812 55.628906 38.660156 L 54.511719 38.660156 C 53.332031 38.304688 53.058594 36.882812 52.746094 35.816406 C 52.390625 32.613281 52.585938 29.375 52.546875 26.175781 C 52.804688 25.089844 52.546875 23.941406 52.804688 22.855469 C 52.707031 22.027344 53 21.238281 52.941406 20.425781 C 52.039062 22.125 51.175781 23.921875 49.800781 25.246094 C 48.898438 26.273438 47.367188 25.898438 46.1875 25.742188 C 45.894531 25.464844 45.601562 25.109375 45.601562 24.65625 C 45.324219 22.976562 45.519531 21.296875 45.460938 19.578125 C 44.480469 21.492188 43.558594 23.566406 42.046875 25.109375 C 41.066406 26.292969 39.101562 26.15625 38.003906 25.1875 C 37.808594 22.265625 37.726562 19.222656 38.511719 16.359375 C 37.925781 16.257812 37.335938 16.101562 36.746094 16.101562 C 35.609375 17.042969 34.332031 17.796875 32.957031 18.332031 C 32.703125 20.507812 32.054688 22.777344 30.40625 24.296875 C 28.914062 25.878906 26.578125 26.078125 24.558594 25.878906 C 23.691406 25.5625 22.828125 25.148438 22.300781 24.339844 C 19.84375 20.980469 20.433594 15.84375 23.320312 13.019531 C 24.105469 12.289062 25.144531 11.835938 26.207031 11.875 C 27.285156 11.144531 28.699219 10.808594 29.933594 11.28125 C 31.957031 12.347656 32.996094 14.777344 32.917969 17.050781 C 33.960938 16.65625 35.078125 16.320312 35.902344 15.546875 C 34.882812 14.460938 34.566406 12.703125 35.3125 11.359375 C 35.628906 10.726562 36.453125 10.453125 37.082031 10.808594 C 37.867188 11.339844 38.375 12.289062 38.375 13.277344 C 38.296875 13.96875 38.023438 14.582031 37.847656 15.25 C 38.789062 15.25 39.710938 15.113281 40.632812 14.957031 C 41.417969 15.546875 41.300781 16.613281 41.105469 17.484375 C 41.085938 18.789062 40.75 20.050781 40.828125 21.375 C 40.632812 22.246094 40.632812 23.152344 40.96875 24.023438 C 41.988281 23.628906 42.578125 22.601562 43.125 21.710938 C 44.1875 20.132812 44.894531 18.351562 45.679688 16.613281 C 45.875 15.585938 45.835938 14.539062 46.011719 13.511719 C 45.03125 13.316406 43.695312 12.722656 43.988281 11.417969 C 44.734375 11.125 45.558594 11.164062 46.265625 11.578125 C 46.304688 9.898438 46.660156 8.257812 46.855469 6.601562 C 46.972656 5.75 47.050781 4.820312 47.757812 4.230469 C 48.113281 3.796875 48.878906 3.144531 49.328125 3.835938 C 49.527344 4.683594 49.566406 5.613281 49.367188 6.441406 L 48.976562 12.289062 C 50.46875 12.050781 51.722656 10.90625 53.195312 10.90625 L 53.589844 11.300781 C 52.371094 12.605469 50.566406 12.980469 48.957031 13.472656 C 48.601562 14.421875 48.859375 15.449219 48.621094 16.4375 L 48.484375 21.179688 C 48.367188 22.164062 48.25 23.230469 48.78125 24.101562 C 49.289062 24.003906 49.703125 23.605469 50.035156 23.230469 C 51.292969 21.847656 52.058594 20.070312 52.902344 18.394531 C 50.996094 16.8125 51.683594 13.179688 54.078125 12.566406 C 54.058594 11.855469 54.277344 11.183594 54.355469 10.492188 C 54.941406 7.488281 55.21875 4.210938 57.199219 1.800781 M 58.671875 2.589844 C 56.964844 5.929688 56.925781 9.78125 56.21875 13.355469 C 56.691406 12.882812 56.808594 12.171875 57.160156 11.636719 C 58.28125 9.167969 59.320312 6.5 59.320312 3.734375 C 59.125 3.339844 59.359375 2.511719 58.691406 2.609375 M 80.089844 3.398438 C 79.5 4.386719 79.5 5.574219 79.304688 6.621094 L 78.988281 10.414062 C 78.675781 11.144531 79.085938 11.992188 78.753906 12.722656 L 78.753906 13.117188 C 79.734375 10.75 80.363281 8.238281 80.757812 5.710938 C 80.65625 4.820312 80.953125 3.875 80.558594 3.0625 C 80.363281 3.023438 80.226562 3.261719 80.128906 3.398438 M 27.679688 12.683594 C 26.894531 13.277344 26.65625 14.382812 26.972656 15.292969 C 27.363281 16.910156 29.011719 17.976562 30.582031 17.78125 C 30.597656 16.386719 30.339844 15.003906 29.816406 13.710938 C 29.425781 12.921875 28.523438 12.328125 27.65625 12.683594 M 68.234375 12.683594 C 67.449219 13.277344 67.210938 14.382812 67.527344 15.292969 C 67.917969 16.910156 69.566406 17.976562 71.136719 17.78125 C 71.214844 16.398438 70.863281 15.015625 70.390625 13.710938 C 70 12.921875 69.097656 12.328125 68.234375 12.683594 M 95.988281 12.683594 C 95.203125 13.277344 94.96875 14.382812 95.28125 15.292969 C 95.675781 16.910156 97.324219 17.976562 98.894531 17.78125 C 98.921875 16.386719 98.667969 15.003906 98.148438 13.710938 C 97.753906 12.921875 96.832031 12.328125 95.988281 12.683594 M 23.59375 17.582031 C 23.261719 18.371094 23.652344 19.164062 23.632812 19.953125 C 23.910156 21.472656 24.417969 23.3125 25.949219 23.941406 C 26.992188 24.101562 28.207031 24.023438 28.953125 23.113281 C 29.871094 21.929688 30.394531 20.484375 30.445312 18.984375 C 28.835938 19.0625 26.972656 19.0625 25.792969 17.703125 C 24.515625 16.554688 24.617188 14.582031 25.242188 13.117188 C 24.066406 14.203125 23.613281 15.984375 23.613281 17.582031 M 64.207031 17.582031 C 63.875 18.371094 64.265625 19.164062 64.226562 19.953125 C 64.503906 21.472656 65.011719 23.3125 66.542969 23.941406 C 67.585938 24.101562 68.800781 24.023438 69.527344 23.113281 C 70.453125 21.933594 70.980469 20.488281 71.039062 18.984375 C 69.429688 19.0625 67.566406 19.0625 66.386719 17.703125 C 65.113281 16.554688 65.210938 14.582031 65.835938 13.117188 C 64.660156 14.203125 64.1875 15.984375 64.207031 17.582031 M 91.964844 17.582031 C 91.632812 18.371094 92.023438 19.164062 91.984375 19.953125 C 92.257812 21.472656 92.769531 23.3125 94.300781 23.941406 C 95.320312 24.101562 96.558594 24.023438 97.285156 23.113281 C 98.226562 21.988281 98.699219 20.464844 98.796875 18.964844 C 97.1875 19.042969 95.339844 19.042969 94.144531 17.679688 C 92.867188 16.535156 92.964844 14.558594 93.59375 13.097656 C 92.417969 14.183594 91.945312 15.964844 91.964844 17.5625 M 53.292969 13.890625 C 53.234375 14.402344 53.332031 14.917969 53.453125 15.390625 C 53.539062 15.320312 53.625 15.246094 53.707031 15.171875 C 53.609375 14.582031 53.902344 13.988281 53.84375 13.394531 L 53.3125 13.910156 M 56.296875 14.660156 C 55.789062 15.410156 56.101562 16.339844 55.828125 17.167969 C 56.355469 17.367188 56.90625 17.367188 57.476562 17.367188 C 57.171875 16.4375 56.777344 15.546875 56.296875 14.699219 M 55.707031 19.183594 C 55.550781 20.507812 55.648438 21.867188 55.433594 23.210938 C 55.53125 26.175781 55.238281 29.136719 55.296875 32.101562 C 55.53125 33.640625 55.335938 35.261719 55.6875 36.78125 L 56.082031 37.136719 C 56.277344 37 56.472656 36.882812 56.710938 36.78125 C 58.085938 34.867188 58.222656 32.339844 58.574219 30.105469 C 58.710938 29.355469 58.476562 28.527344 58.769531 27.816406 C 58.789062 24.949219 58.515625 22.144531 57.984375 19.359375 C 58.003906 19.164062 57.90625 18.964844 57.710938 18.964844 C 57.0625 19.164062 56.394531 19.320312 55.707031 19.242188 Z M 83.859375 5.472656 C 84.289062 4.566406 85.371094 4.050781 86.3125 4.171875 C 87.527344 5.296875 86.703125 7.527344 85.527344 8.320312 C 85.171875 8.457031 84.800781 8.515625 84.425781 8.515625 L 83.996094 8.042969 C 83.816406 7.210938 83.777344 6.355469 83.878906 5.511719 Z M 83.859375 5.472656 "/>
</g>
</svg>
