<svg xmlns="http://www.w3.org/2000/svg" width="74.67" height="26.67" viewBox="0 0 56 20" fill="rgb(0%,0%,0%)"><path d="M5.18 0h.3l.2 1.1c1.27.04 2.62.25 3.66 1.06.83.57 1.28 1.57 1.37 2.57A4 4 0 0 1 9.66 8.2c-1.13 1.2-2.82 1.57-4.4 1.6-.03 1.2.03 2.5-.6 3.57-.3.62-1.28.68-1.66.13-.22-.4.04-.83.18-1.2.4-.84.4-1.8.5-2.7-.38-.28-1.02-.5-.84-1.1.24-.2.57-.2.86-.25l.35-6.06c-.93.34-2.02.7-2.47 1.7-.27.52-.13 1.16-.42 1.67-.25.4-.8.3-1.15.06V4.57A3.6 3.6 0 0 1 1.3 2.66c.8-.72 1.9-1.06 2.94-1.32C4.44.82 4.7.3 5.18 0m.42 2c-.27 2.32-.25 4.67-.36 7a5.1 5.1 0 0 0 1.99-.18 2.9 2.9 0 0 0 1.98-2.8c.02-.93-.18-1.9-.8-2.64C7.73 2.54 6.67 2.1 5.6 2zM30.4.77c.28-.33.8-.6 1.2-.32.35.37.28.95.3 1.4.02 1.65-.6 3.22-1.38 4.64-.1.24-.33.5-.2.77l.7 1.62c.68-.23 1.45-.34 1.97-.88.38-.54.66-1.2 1.26-1.54.44-.33 1-.38 1.5-.55.38-.1.77-.26 1.17-.24.57-.05 1.02.37 1.38.76.57.62.7 1.5.8 2.3l1.08-.43.55-4.83c.18-.92.4-2 1.23-2.55.32-.2.83-.3 1.12.01.32.4.25.98.27 1.46-.1 1.55-.52 3.06-1.12 4.48a4.9 4.9 0 0 0-.57 2.17c.02 1.12-.1 2.3.2 3.38.84-.6 1.43-1.5 1.84-2.46.34-1.06.08-2.24.46-3.3.4-.53.98-.94 1.63-1.05.27 1.4-.48 2.7-.52 4.06a13.1 13.1 0 0 0 .06 2.73A5.5 5.5 0 0 0 47 10.32c.46-.86.45-1.9.97-2.74.4-.72 1.05-1.32 1.86-1.5.62-.12 1.2-.43 1.84-.43.57-.05 1.02.37 1.37.76.57.62.7 1.5.8 2.3.75-.27 1.44-.67 2.15-1.03v.38c-.5.5-1.15.83-1.78 1.16-.15.1-.36.16-.4.36-.23.84-.37 1.75-.93 2.45-.48.7-1.25 1.16-2.1 1.26-.7.05-1.46.15-2.07-.27-.75-.52-1.13-1.4-1.32-2.28-.45.86-.92 1.75-1.67 2.37-.33.27-.8.23-1.2.2-.3-.08-.7-.2-.74-.55-.07-.53-.05-1.07-.07-1.6-.42.7-.85 1.46-1.5 1.98-.3.22-.7.18-1.02.18-.34-.07-.87-.12-.95-.55-.2-1.3-.12-2.6-.07-3.9-.35.18-.72.33-1.04.57-.2.4-.2.84-.35 1.25-.32 1.23-1.27 2.37-2.56 2.57-.9.15-2.03.2-2.66-.6-.94-.98-1-2.43-.92-3.7l-1.42.63a17.9 17.9 0 0 1 .18 7.77c-.2 1.06-.72 2.2-1.8 2.6h-.73c-.48-.43-.82-1-.84-1.67-.27-2.58-.04-5.18.1-7.77-.52.9-.98 1.9-1.8 2.58-.43.4-1.05.24-1.57.2a.6.6 0 0 1-.52-.48c-.17-.9-.07-1.83-.1-2.74a15.5 15.5 0 0 1-1.46 2.48c-.4.42-.86.95-1.5.78-.36-.02-.96-.1-1-.57a13.7 13.7 0 0 1 .27-4.42c-.27-.02-.54-.1-.82-.07-.6.27-1.14.65-1.72.95-.15.1-.37.16-.42.35-.23.76-.3 1.6-.78 2.24-.5.8-1.35 1.38-2.3 1.48-.76.05-1.62.1-2.23-.43-1.16-1.07-1.38-2.83-.96-4.3.3-.92.82-1.84 1.7-2.3.38-.2.8-.25 1.2-.38.4-.12.8-.27 1.22-.25.57-.05 1.02.37 1.37.76.57.62.7 1.5.8 2.3.53-.2 1.03-.43 1.52-.7-.16-.3-.34-.6-.45-.9-.1-.52-.05-1.1.32-1.52.2-.2.52-.2.77-.1.28.14.42.45.57.7.25.52-.01 1.08-.15 1.6l1.36-.12c.35.01.47.46.4.75-.07 1.32-.38 2.64-.14 3.96 1.12-.77 1.7-2.07 2.27-3.27a5.7 5.7 0 0 0 .45-2.2 3.6 3.6 0 0 1-.88-.47c-.2-.18-.18-.48-.27-.7l1.3.06.45-3.12c.1-.55.6-.86 1.07-1.1.13.34.2.7.16 1.08L26 6.2c.6-.18 1.15-.46 1.73-.66.26-.1.54.02.8.07a5.5 5.5 0 0 1-2.57 1.17c-.12.82-.14 1.66-.2 2.5-.04 1-.14 2.04.07 3.04 1.17-.54 1.66-1.87 2.2-2.95-.4-.58-.7-1.3-.43-2 .1-.55.7-.72 1.03-1.1.22-.66.27-1.37.4-2.05.2-1.24.5-2.54 1.36-3.5m.7.45a9.2 9.2 0 0 0-.69 2.09c-.23 1.15-.45 2.3-.54 3.48l.9-1.95c.43-1.15.86-2.38.57-3.63h-.26m11.1 1.13c-.28 1.4-.36 2.85-.44 4.3.63-1.67 1.25-3.45.95-5.27a2 2 0 0 0-.5.98m-27.8 4.24c-.5.64-.2 1.68.45 2.1.36.3.86.32 1.3.42-.05-.78-.1-1.6-.5-2.3-.24-.4-.9-.65-1.24-.23m21.56 0c-.5.64-.2 1.68.45 2.1.36.3.86.32 1.3.42-.05-.78-.1-1.6-.5-2.3-.24-.4-.9-.65-1.24-.23m14.75 0c-.5.64-.2 1.68.45 2.1.36.3.86.32 1.3.42-.05-.78-.1-1.6-.5-2.3-.24-.4-.9-.65-1.24-.23M12.6 8.45c-.16 1.14-.14 2.42.5 3.42.47.76 1.58.74 2.2.2.56-.6.8-1.4.9-2.2-.97.02-2.14-.04-2.7-.96-.52-.6-.2-1.43-.1-2.1-.36.5-.7 1.03-.77 1.65m21.56 0c-.16 1.14-.14 2.42.5 3.42.47.76 1.58.74 2.2.2a3.8 3.8 0 0 0 .88-2.2c-.48-.02-.96-.01-1.44-.1a2.1 2.1 0 0 1-1.5-1.28c-.15-.55.04-1.14.13-1.7-.36.5-.72 1.03-.78 1.65m14.75 0c-.16 1.14-.14 2.42.5 3.42.46.76 1.58.74 2.2.2.56-.6.8-1.4.9-2.2-.48-.02-.97-.01-1.44-.1a2.1 2.1 0 0 1-1.5-1.28c-.15-.55.04-1.14.13-1.7-.36.5-.7 1.03-.77 1.65M28.45 8c.1-.36.12-.74.15-1.1-.34.3-.25.73-.15 1.1m1.45-.44c-.12.43-.16.88-.22 1.32a6.7 6.7 0 0 0 .88.08 6.4 6.4 0 0 0-.66-1.4m-.28 2.36l-.2 5.86c.1 1.14-.06 2.34.34 3.44.6-.25.86-.9 1-1.5.7-2.6.55-5.37.01-7.98l-1.14.18zm15.8-7.73c.18-.05.43-.08.56.1.27.25.17.66.14.98-.08.4-.32.82-.7 1.03-.22.07-.55.2-.7-.02-.24-.3-.17-.74-.2-1.1-.1-.54.45-.87.9-.97zm0 0"/></svg>