<?xml version="1.0" encoding="UTF-8" ?>
<!DOCTYPE svg PUBLIC "-//W3C//DTD SVG 1.1//EN" "http://www.w3.org/Graphics/SVG/1.1/DTD/svg11.dtd">
<svg width="512pt" height="512pt" viewBox="0 0 512 512" version="1.1" xmlns="http://www.w3.org/2000/svg">
<g id="#23cf3bff">
<path fill="#23cf3b" opacity="1.00" d=" M 221.86 48.75 C 248.23 44.91 275.28 45.06 301.44 50.41 C 329.30 55.31 357.76 64.42 378.74 84.26 C 406.25 109.13 425.87 145.14 423.93 183.01 C 421.96 210.49 410.03 236.21 394.72 258.73 C 383.16 275.56 371.28 292.20 360.85 309.78 C 349.05 329.37 338.29 350.16 333.17 372.58 C 331.26 377.85 333.27 382.45 337.83 385.30 C 354.21 390.74 373.20 389.80 387.56 379.66 C 393.72 375.35 401.03 371.73 405.12 365.16 C 407.69 359.36 406.95 352.48 409.83 346.77 C 414.39 341.40 424.69 341.18 428.04 347.96 C 430.07 353.85 429.48 360.76 426.04 366.04 C 420.75 373.92 421.62 383.87 420.72 392.86 C 419.75 410.87 412.95 428.55 401.47 442.47 C 396.71 447.60 390.78 452.59 383.57 453.44 C 371.30 455.07 358.90 455.47 346.59 456.58 C 332.01 457.17 316.21 458.34 302.94 451.06 C 295.58 446.73 291.45 438.68 290.63 430.40 C 288.41 410.99 294.68 391.99 300.92 373.90 C 306.67 359.12 311.68 344.07 317.35 329.26 C 327.32 304.74 334.45 279.11 339.60 253.17 C 344.82 230.32 349.26 207.23 351.90 183.93 C 355.83 153.06 344.24 120.73 321.76 99.24 C 309.47 87.38 293.07 80.35 276.35 77.66 C 260.29 76.53 243.89 75.89 228.00 78.98 C 213.70 82.97 199.75 89.51 189.21 100.20 C 173.53 115.72 163.08 136.53 160.47 158.48 C 157.01 178.71 161.82 198.97 165.23 218.83 C 167.66 233.13 170.81 247.29 174.57 261.30 C 180.02 286.59 186.34 311.88 196.90 335.59 C 205.72 361.72 218.30 386.95 221.41 414.66 C 222.19 424.81 222.45 436.39 215.86 444.89 C 213.03 449.19 208.19 451.53 203.67 453.63 C 184.66 459.73 164.46 456.04 144.95 455.30 C 134.95 454.45 123.54 454.46 115.60 447.43 C 106.63 440.14 101.32 429.53 96.86 419.11 C 91.79 406.52 91.76 392.80 90.57 379.52 C 90.80 370.75 82.80 364.67 82.98 355.97 C 81.79 351.18 83.94 345.49 88.66 343.64 C 93.19 341.81 98.17 343.22 101.79 346.16 C 105.63 352.68 103.12 361.64 108.46 367.50 C 114.05 373.55 121.37 377.69 128.57 381.54 C 144.51 390.54 165.52 391.86 181.07 381.33 C 176.27 357.70 166.52 335.51 154.23 314.87 C 140.73 291.45 124.10 270.04 109.97 247.02 C 97.76 227.10 89.20 204.51 88.24 180.98 C 86.79 166.18 90.66 151.48 95.68 137.68 C 105.47 113.87 121.58 92.68 141.96 76.95 C 165.01 59.56 193.78 52.76 221.86 48.75 Z" />
</g>
<g id="#b3b3b3ff">
<path fill="#b3b3b3" opacity="1.00" d=" M 238.95 92.91 C 247.44 82.28 264.52 81.09 275.29 88.71 C 282.74 95.89 286.96 105.64 291.04 114.98 C 302.07 142.33 310.96 170.48 320.61 198.34 C 326.34 216.82 333.48 234.83 339.60 253.17 C 334.45 279.11 327.32 304.74 317.35 329.26 C 305.79 299.45 294.79 269.41 285.12 238.92 C 276.15 212.11 268.77 184.72 258.42 158.39 C 241.90 203.62 229.51 250.27 212.42 295.31 C 207.21 308.72 202.93 322.52 196.90 335.59 C 186.34 311.88 180.02 286.59 174.57 261.30 C 176.27 254.52 179.14 248.14 181.50 241.58 C 193.68 207.77 204.39 173.45 216.64 139.67 C 222.54 123.47 228.03 106.56 238.95 92.91 Z" />
<path fill="#b3b3b3" opacity="1.00" d=" M 250.43 285.43 C 262.55 284.77 275.97 283.81 286.95 290.05 C 296.49 295.04 298.51 307.97 294.02 317.02 C 289.48 324.76 279.87 327.95 271.35 328.43 C 259.83 329.00 247.73 330.37 236.61 326.44 C 231.01 324.04 224.19 320.91 222.63 314.37 C 221.74 308.10 220.66 300.47 225.37 295.34 C 231.02 287.37 241.59 286.55 250.43 285.43 Z" />
<path fill="#b3b3b3" opacity="1.00" d=" M 333.17 372.58 C 338.29 350.16 349.05 329.37 360.85 309.78 C 369.62 333.13 378.62 356.38 387.56 379.66 C 373.20 389.80 354.21 390.74 337.83 385.30 C 336.39 381.02 334.64 376.85 333.17 372.58 Z" />
<path fill="#b3b3b3" opacity="1.00" d=" M 154.23 314.87 C 166.52 335.51 176.27 357.70 181.07 381.33 C 165.52 391.86 144.51 390.54 128.57 381.54 C 137.15 359.33 145.83 337.15 154.23 314.87 Z" />
</g>
</svg>
