<?xml version="1.0" encoding="UTF-8" ?>
<!DOCTYPE svg PUBLIC "-//W3C//DTD SVG 1.1//EN" "http://www.w3.org/Graphics/SVG/1.1/DTD/svg11.dtd">
<svg width="1024pt" height="1024pt" viewBox="0 0 1024 1024" version="1.1" xmlns="http://www.w3.org/2000/svg">
<g id="#0f0f0fff">
<path fill="#0f0f0f" opacity="1.00" d=" M 488.74 121.74 C 495.64 115.58 502.77 107.14 513.02 108.04 C 522.32 108.51 528.82 115.94 535.26 121.74 C 593.76 180.24 652.22 238.79 710.79 297.22 C 716.20 302.68 722.17 309.12 721.43 317.48 C 721.15 330.01 706.44 339.70 694.97 334.05 C 686.06 328.96 679.52 320.80 672.24 313.76 C 625.20 266.75 578.27 219.63 531.12 172.73 C 530.84 412.83 531.08 652.93 531.00 893.02 C 531.66 900.93 530.17 910.35 522.84 914.85 C 513.13 922.42 497.02 916.93 494.05 904.98 C 493.80 902.75 493.28 898.28 493.03 896.04 C 492.80 654.95 493.34 413.84 492.76 172.75 C 441.60 223.92 390.38 275.05 339.28 326.29 C 334.53 331.27 328.18 335.63 321.07 335.72 C 314.85 335.65 309.50 331.94 305.79 327.22 C 301.67 321.12 301.50 312.62 305.42 306.38 C 311.59 297.99 319.48 291.14 326.75 283.75 C 380.75 229.75 434.76 175.75 488.74 121.74 Z" />
</g>
</svg>
