<?xml version="1.0" encoding="UTF-8" ?>
<!DOCTYPE svg PUBLIC "-//W3C//DTD SVG 1.1//EN" "http://www.w3.org/Graphics/SVG/1.1/DTD/svg11.dtd">
<svg width="1024pt" height="1024pt" viewBox="0 0 1024 1024" version="1.1" xmlns="http://www.w3.org/2000/svg">
<g id="#d7d7d7ff">
<path fill="#d7d7d7" opacity="1.00" d=" M 490.22 120.22 C 496.65 114.07 504.23 106.90 513.92 108.09 C 525.09 109.53 532.10 119.07 539.80 126.20 C 597.18 183.82 654.79 241.20 712.24 298.76 C 717.32 303.66 721.90 310.01 721.44 317.46 C 721.12 327.68 711.40 336.26 701.31 335.65 C 694.25 335.36 689.12 330.19 684.23 325.78 C 633.22 274.74 582.26 223.64 531.13 172.73 C 530.83 412.83 531.09 652.93 531.00 893.02 C 531.64 900.92 530.18 910.36 522.84 914.85 C 513.14 922.40 496.98 916.95 494.07 904.98 C 493.81 902.75 493.30 898.28 493.04 896.04 C 492.79 654.95 493.34 413.85 492.77 172.76 C 441.58 223.91 390.38 275.05 339.28 326.29 C 334.69 331.10 328.69 335.23 321.89 335.73 C 315.18 335.91 309.15 331.93 305.39 326.64 C 301.69 320.56 301.61 312.43 305.43 306.39 C 311.59 298.00 319.47 291.13 326.75 283.75 C 381.23 229.23 435.79 174.79 490.22 120.22 Z" />
</g>
</svg>
