<?xml version="1.0" encoding="UTF-8" ?>
<!DOCTYPE svg PUBLIC "-//W3C//DTD SVG 1.1//EN" "http://www.w3.org/Graphics/SVG/1.1/DTD/svg11.dtd">
<svg width="504pt" height="504pt" viewBox="0 0 504 504" version="1.1" xmlns="http://www.w3.org/2000/svg">
<g id="#000000fe">
<path fill="#000000" opacity="1.00" d=" M 169.50 0.00 L 334.50 0.00 C 356.81 1.19 379.46 1.68 401.10 7.85 C 421.74 13.37 441.42 23.28 457.18 37.83 C 478.93 57.11 492.90 84.23 498.41 112.59 C 502.24 131.37 502.45 150.61 504.00 169.65 L 504.00 334.50 C 502.80 356.81 502.32 379.46 496.15 401.10 C 490.63 421.74 480.72 441.42 466.17 457.18 C 446.89 478.93 419.77 492.90 391.41 498.41 C 372.63 502.24 353.39 502.45 334.35 504.00 L 169.50 504.00 C 147.19 502.80 124.54 502.32 102.90 496.15 C 82.26 490.63 62.58 480.72 46.82 466.17 C 25.07 446.89 11.10 419.77 5.59 391.41 C 1.76 372.63 1.55 353.39 0.00 334.35 L 0.00 169.65 C 1.55 150.61 1.76 131.37 5.59 112.59 C 11.10 84.23 25.07 57.11 46.82 37.83 C 62.58 23.28 82.26 13.37 102.90 7.85 C 124.54 1.68 147.19 1.19 169.50 0.00 M 166.45 46.54 C 139.01 47.32 109.31 48.71 85.93 64.94 C 73.47 74.22 62.59 86.28 56.82 100.88 C 46.49 125.15 46.84 152.11 46.05 177.99 C 45.98 226.33 45.93 274.67 46.07 323.01 C 47.26 350.14 46.15 378.43 57.10 403.90 C 65.93 424.03 83.03 440.62 103.68 448.33 C 127.29 457.50 153.06 457.18 177.99 457.95 C 226.33 458.02 274.67 458.07 323.01 457.93 C 350.14 456.74 378.43 457.85 403.90 446.90 C 423.55 438.26 439.89 421.75 447.77 401.73 C 457.51 377.78 457.17 351.41 457.95 326.01 C 458.02 277.67 458.07 229.33 457.93 180.99 C 456.74 153.85 457.85 125.57 446.90 100.10 C 439.56 83.13 426.15 68.93 410.02 60.02 C 382.71 45.87 350.91 46.76 321.00 46.00 C 269.49 46.32 217.95 45.32 166.45 46.54 Z" />
<path fill="#000000" opacity="1.00" d=" M 381.45 87.53 C 394.08 84.96 406.76 92.13 413.20 102.79 C 418.86 113.42 418.25 127.73 409.68 136.71 C 402.07 147.04 386.98 150.99 375.28 145.72 C 366.43 142.21 358.99 134.48 356.93 125.05 C 352.10 108.69 364.70 89.84 381.45 87.53 Z" />
<path fill="#000000" opacity="1.00" d=" M 247.46 122.55 C 292.17 120.50 337.39 143.85 360.94 182.03 C 383.78 216.62 387.94 262.72 371.95 300.94 C 355.25 343.55 314.02 375.22 268.55 380.40 C 221.39 387.21 171.18 364.88 145.05 324.97 C 119.44 288.57 115.33 238.44 134.13 198.15 C 153.51 154.10 199.39 123.68 247.46 122.55 M 246.45 168.52 C 216.45 170.15 188.07 189.36 175.97 216.98 C 160.46 248.65 168.96 289.53 194.75 313.26 C 211.96 328.89 235.77 338.09 259.15 335.36 C 288.58 333.18 316.14 314.13 328.03 287.02 C 343.54 255.35 335.04 214.47 309.25 190.74 C 292.43 175.51 269.32 166.27 246.45 168.52 Z" />
</g>
</svg>
