<?xml version="1.0" encoding="UTF-8" ?>
<!DOCTYPE svg PUBLIC "-//W3C//DTD SVG 1.1//EN" "http://www.w3.org/Graphics/SVG/1.1/DTD/svg11.dtd">
<svg width="630pt" height="630pt" viewBox="0 0 630 630" version="1.1" xmlns="http://www.w3.org/2000/svg">
<g id="#ffffffff">
<path fill="#ffffff" opacity="1.00" d=" M 193.50 0.00 L 437.50 0.00 C 458.50 1.80 479.72 3.10 500.11 8.84 C 526.09 15.74 550.98 27.89 571.04 45.96 C 594.77 66.70 611.17 94.98 619.82 125.11 C 626.66 148.65 627.32 173.29 630.00 197.50 L 630.00 437.50 C 628.05 467.91 624.36 498.80 611.94 526.95 C 600.94 553.07 582.80 576.17 560.04 593.05 C 539.87 607.76 516.45 617.98 491.99 622.92 C 472.38 627.30 452.18 627.40 432.32 630.00 L 193.50 630.00 C 170.82 628.26 147.86 626.66 125.96 620.04 C 104.41 613.73 83.57 604.15 66.04 589.96 C 35.16 566.01 14.82 530.03 7.09 491.99 C 2.74 472.44 2.28 452.33 0.00 432.50 L 0.00 197.50 C 2.28 177.66 2.74 157.56 7.09 138.01 C 14.19 102.95 31.93 69.68 58.96 45.96 C 78.01 28.84 101.40 16.93 125.96 9.97 C 147.86 3.35 170.82 1.73 193.50 0.00 M 216.45 58.59 C 183.05 59.91 147.17 59.37 117.04 76.08 C 96.23 87.67 79.42 106.48 70.64 128.67 C 58.87 157.91 58.70 189.97 58.01 221.00 C 58.10 282.67 57.78 344.34 58.16 406.01 C 59.41 432.83 59.00 460.11 65.70 486.30 C 70.96 508.85 84.07 529.42 102.14 543.87 C 122.03 560.32 147.98 566.98 173.14 569.77 C 215.99 573.29 259.05 571.60 302.00 572.00 C 349.35 571.52 396.76 573.33 444.05 570.23 C 462.00 569.24 480.02 566.90 497.12 561.14 C 521.20 552.39 542.07 534.89 554.32 512.32 C 570.12 482.21 571.22 447.25 571.94 414.01 C 572.11 362.34 571.93 310.67 572.01 259.00 C 572.24 230.80 571.56 202.57 569.39 174.45 C 567.30 152.80 563.05 130.57 550.91 112.09 C 538.17 91.47 517.87 75.81 494.89 68.26 C 464.74 58.03 432.43 58.47 401.00 57.97 C 339.49 58.42 277.95 57.21 216.45 58.59 Z" />
<path fill="#ffffff" opacity="1.00" d=" M 479.44 108.49 C 498.38 106.15 518.55 120.83 520.89 140.11 C 525.57 160.13 510.11 181.99 489.83 184.75 C 473.36 188.37 455.43 178.75 448.21 163.80 C 441.86 150.66 443.63 134.21 452.92 122.93 C 459.11 114.50 469.23 109.74 479.44 108.49 Z" />
<path fill="#ffffff" opacity="1.00" d=" M 297.45 153.57 C 315.15 152.58 333.29 151.82 350.59 156.46 C 375.03 161.60 397.83 173.20 417.41 188.57 C 453.12 217.28 475.86 262.05 476.94 307.98 C 480.60 362.91 452.81 418.55 406.97 448.95 C 382.25 466.47 352.28 476.21 322.02 476.96 C 275.59 480.08 229.02 460.34 196.86 427.16 C 177.86 406.16 163.13 380.82 157.04 353.00 C 152.65 334.56 152.20 315.40 153.51 296.57 C 157.61 258.94 175.31 222.88 202.96 196.96 C 228.83 173.09 262.17 156.75 297.45 153.57 M 304.45 211.54 C 267.94 214.88 234.26 239.19 219.89 272.96 C 202.02 310.05 211.48 357.09 239.29 386.73 C 261.41 409.21 293.81 422.79 325.55 418.47 C 362.04 415.13 395.72 390.79 410.13 357.08 C 427.94 319.95 418.58 272.92 390.71 243.27 C 368.59 220.79 336.19 207.21 304.45 211.54 Z" />
</g>
</svg>
